#N canvas 0 0 450 300 10;
#X obj 10 630 inlet;
#X obj 130 630 r \$0-read;
#X obj 130 660 faust-control \$0;
#X obj 130 690 s \$0-write;
#X obj 10 690 r \$0-in;
#X obj 10 720 untitled~;
#X obj 10 750 s \$0-out;
#X obj 70 780 outlet~;
#X obj 130 780 outlet~;
#X obj 10 780 outlet;
#X connect 0 0 2 0;
#X connect 1 0 2 0;
#X connect 2 0 3 0;
#X connect 5 0 6 0;
#X connect 0 0 9 0;
#X connect 4 0 5 0;
#X connect 5 1 7 0;
#X connect 5 2 8 0;
#X obj 10 30 vsl 15 128 0 1 0 0 \$0-Freeverb/0x00/Damp \$0-Freeverb/0x00/Damp Damp 0 -8 0 10 -262144 -1 -1 0 1;
#X obj 10 170 nbx 5 14 0 1 0 0 \$0-Freeverb/0x00/Damp \$0-Freeverb/0x00/Damp empty 0 -6 0 10 -262144 -1 -1 256;
#X obj 10 210 vsl 15 128 0 1 0 0 \$0-Freeverb/0x00/RoomSize \$0-Freeverb/0x00/RoomSize RoomSize 0 -8 0 10 -262144 -1 -1 0 1;
#X obj 10 350 nbx 5 14 0 1 0 0 \$0-Freeverb/0x00/RoomSize \$0-Freeverb/0x00/RoomSize empty 0 -6 0 10 -262144 -1 -1 256;
#X obj 10 390 vsl 15 128 0 1 0 0 \$0-Freeverb/0x00/Stereo-Spread \$0-Freeverb/0x00/Stereo-Spread Stereo-Spread 0 -8 0 10 -262144 -1 -1 0 1;
#X obj 10 530 nbx 5 14 0 1 0 0 \$0-Freeverb/0x00/Stereo-Spread \$0-Freeverb/0x00/Stereo-Spread empty 0 -6 0 10 -262144 -1 -1 256;
#X obj 85 30 vsl 15 128 0 1 0 0 \$0-Freeverb/Wet \$0-Freeverb/Wet Wet 0 -8 0 10 -262144 -1 -1 0 1;
#X obj 85 170 nbx 5 14 0 1 0 0 \$0-Freeverb/Wet \$0-Freeverb/Wet empty 0 -6 0 10 -262144 -1 -1 256;
#X obj 122 3 bng 15 250 50 1 \$0-init \$0-ignore empty 0 -6 0 10 -262144 -1 -1;
#X obj 142 3 tgl 15 1 \$0-active \$0-active empty 0 -6 0 10 -262144 -1 -1 1 1;
#X obj 450 10 r \$0-init;
#X obj 730 10 s \$0-in;
#X obj 870 10 s \$0-read;
#X obj 1010 10 r \$0-write;
#X msg 450 30 1;
#X obj 450 50 s \$0-active;
#X connect 24 0 25 0;
#X obj 730 30 r \$0-active;
#X msg 730 50 active \$1;
#X connect 26 0 27 0;
#X connect 27 0 21 0;
#X obj 1010 30 route active;
#X obj 1010 50 s \$0-active;
#X connect 23 0 28 0;
#X connect 28 0 29 0;
#X msg 450 70 0.5;
#X obj 450 90 s \$0-Freeverb/0x00/Damp;
#X connect 20 0 30 0;
#X connect 30 0 31 0;
#X obj 730 70 r \$0-Freeverb/0x00/Damp;
#X msg 730 90 /Freeverb/0x00/Damp \$1;
#X connect 32 0 33 0;
#X connect 33 0 21 0;
#X obj 1010 70 route /Freeverb/0x00/Damp;
#X obj 1010 90 s \$0-Freeverb/0x00/Damp;
#X connect 28 1 34 0;
#X connect 34 0 35 0;
#X msg 450 110 0.5;
#X obj 450 130 s \$0-Freeverb/0x00/RoomSize;
#X connect 20 0 36 0;
#X connect 36 0 37 0;
#X obj 730 110 r \$0-Freeverb/0x00/RoomSize;
#X msg 730 130 /Freeverb/0x00/RoomSize \$1;
#X connect 38 0 39 0;
#X connect 39 0 21 0;
#X obj 1010 110 route /Freeverb/0x00/RoomSize;
#X obj 1010 130 s \$0-Freeverb/0x00/RoomSize;
#X connect 34 1 40 0;
#X connect 40 0 41 0;
#X msg 450 150 0.5;
#X obj 450 170 s \$0-Freeverb/0x00/Stereo-Spread;
#X connect 20 0 42 0;
#X connect 42 0 43 0;
#X obj 730 150 r \$0-Freeverb/0x00/Stereo-Spread;
#X msg 730 170 /Freeverb/0x00/Stereo-Spread \$1;
#X connect 44 0 45 0;
#X connect 45 0 21 0;
#X obj 1010 150 route /Freeverb/0x00/Stereo-Spread;
#X obj 1010 170 s \$0-Freeverb/0x00/Stereo-Spread;
#X connect 40 1 46 0;
#X connect 46 0 47 0;
#X msg 450 190 0.3333;
#X obj 450 210 s \$0-Freeverb/Wet;
#X connect 20 0 48 0;
#X connect 48 0 49 0;
#X obj 730 190 r \$0-Freeverb/Wet;
#X msg 730 210 /Freeverb/Wet \$1;
#X connect 50 0 51 0;
#X connect 51 0 21 0;
#X obj 1010 190 route /Freeverb/Wet;
#X obj 1010 210 s \$0-Freeverb/Wet;
#X connect 46 1 52 0;
#X connect 52 0 53 0;
#X coords 0 -1 1 1 160 560 1 0 0;
#X text 0 580 Generated Thu Oct  1 20:59:16 2020 by faust2pd v2.16. See http://faust.grame.fr and http://purelang.bitbucket.org.;
